ffmpeg version 3.4.8-0ubuntu0.2 Copyright (c) 2000-2020 the FFmpeg developers
  built with gcc 7 (Ubuntu 7.5.0-3ubuntu1~18.04)
  configuration: --prefix=/usr --extra-version=0ubuntu0.2 --toolchain=hardened --libdir=/usr/lib/x86_64-linux-gnu --incdir=/usr/include/x86_64-linux-gnu --enable-gpl --disable-stripping --enable-avresample --enable-avisynth --enable-gnutls --enable-ladspa --enable-libass --enable-libbluray --enable-libbs2b --enable-libcaca --enable-libcdio --enable-libflite --enable-libfontconfig --enable-libfreetype --enable-libfribidi --enable-libgme --enable-libgsm --enable-libmp3lame --enable-libmysofa --enable-libopenjpeg --enable-libopenmpt --enable-libopus --enable-libpulse --enable-librubberband --enable-librsvg --enable-libshine --enable-libsnappy --enable-libsoxr --enable-libspeex --enable-libssh --enable-libtheora --enable-libtwolame --enable-libvorbis --enable-libvpx --enable-libwavpack --enable-libwebp --enable-libx265 --enable-libxml2 --enable-libxvid --enable-libzmq --enable-libzvbi --enable-omx --enable-openal --enable-opengl --enable-sdl2 --enable-libdc1394 --enable-libdrm --enable-libiec61883 --enable-chromaprint --enable-frei0r --enable-libopencv --enable-libx264 --enable-shared
  libavutil      55. 78.100 / 55. 78.100
  libavcodec     57.107.100 / 57.107.100
  libavformat    57. 83.100 / 57. 83.100
  libavdevice    57. 10.100 / 57. 10.100
  libavfilter     6.107.100 /  6.107.100
  libavresample   3.  7.  0 /  3.  7.  0
  libswscale      4.  8.100 /  4.  8.100
  libswresample   2.  9.100 /  2.  9.100
  libpostproc    54.  7.100 / 54.  7.100
[rawvideo @ 0x55c269e3fa20] Estimating duration from bitrate, this may be inaccurate
Input #0, rawvideo, from '../../SVC-Encoder-20220109T061506Z-001/SVC-Encoder/Dataset/RollerCoaster/ERP_8x8/tile_yuv/Tile_16_480x240.yuv':
  Duration: 00:00:10.00, start: 0.000000, bitrate: 41472 kb/s
    Stream #0:0: Video: rawvideo (I420 / 0x30323449), yuv420p, 480x240, 41472 kb/s, 30 tbr, 30 tbn, 30 tbc
Stream mapping:
  Stream #0:0 -> #0:0 (rawvideo (native) -> h264 (libx264))
Press [q] to stop, [?] for help
[libx264 @ 0x55c269e4cc60] using cpu capabilities: MMX2 SSE2Fast LZCNT SSSE3 SSE4.2 AVX
[libx264 @ 0x55c269e4cc60] profile High, level 2.1
Output #0, rawvideo, to 'RollerCoaster_Tile_16_480x240_x264_QP_20.h264':
  Metadata:
    encoder         : Lavf57.83.100
    Stream #0:0: Video: h264 (libx264), yuv420p, 480x240, q=-1--1, 30 fps, 30 tbn, 30 tbc
    Metadata:
      encoder         : Lavc57.107.100 libx264
    Side data:
      cpb: bitrate max/min/avg: 0/0/0 buffer size: 0 vbv_delay: -1
frame=  186 fps=0.0 q=26.0 PSNR=Y:nan U:nan V:nan *:nan size=     107kB time=00:00:04.76 bitrate= 184.4kbits/s speed=9.53x    frame=  300 fps=0.0 q=26.0 LPSNR=Y:inf U:inf V:inf *:inf size=     199kB time=00:00:09.93 bitrate= 163.9kbits/s speed=10.8x    
video:199kB audio:0kB subtitle:0kB other streams:0kB global headers:0kB muxing overhead: 0.000000%
[libx264 @ 0x55c269e4cc60] frame I:2     Avg QP:18.27  size: 10537  PSNR Mean Y:50.07 U:53.00 V:55.23 Avg:51.02 Global:51.00
[libx264 @ 0x55c269e4cc60] frame P:76    Avg QP:19.88  size:  1772  PSNR Mean Y:47.64 U:52.08 V:53.78 Avg:48.78 Global:48.76
[libx264 @ 0x55c269e4cc60] frame B:222   Avg QP:25.50  size:   215  PSNR Mean Y:47.15 U:51.85 V:53.58 Avg:48.34 Global:48.31
[libx264 @ 0x55c269e4cc60] consecutive B-frames:  1.0%  0.7%  1.0% 97.3%
[libx264 @ 0x55c269e4cc60] mb I  I16..4: 26.0% 61.2% 12.8%
[libx264 @ 0x55c269e4cc60] mb P  I16..4:  1.1%  0.4%  0.0%  P16..4: 38.0% 13.6%  6.3%  0.0%  0.0%    skip:40.6%
[libx264 @ 0x55c269e4cc60] mb B  I16..4:  0.0%  0.0%  0.0%  B16..8: 32.5%  1.6%  0.1%  direct: 0.1%  skip:65.7%  L0:41.1% L1:56.4% BI: 2.5%
[libx264 @ 0x55c269e4cc60] 8x8 transform intra:47.7% inter:71.3%
[libx264 @ 0x55c269e4cc60] coded y,uvDC,uvAC intra: 40.5% 57.4% 20.0% inter: 6.2% 7.2% 0.0%
[libx264 @ 0x55c269e4cc60] i16 v,h,dc,p: 23% 42% 18% 17%
[libx264 @ 0x55c269e4cc60] i8 v,h,dc,ddl,ddr,vr,hd,vl,hu:  7% 35% 19%  3%  6%  3% 17%  2%  8%
[libx264 @ 0x55c269e4cc60] i4 v,h,dc,ddl,ddr,vr,hd,vl,hu: 11% 32% 16%  2%  8%  2% 18%  2% 10%
[libx264 @ 0x55c269e4cc60] i8c dc,h,v,p: 48% 34% 11%  7%
[libx264 @ 0x55c269e4cc60] Weighted P-Frames: Y:0.0% UV:0.0%
[libx264 @ 0x55c269e4cc60] ref P L0: 60.1% 13.6% 21.1%  5.2%
[libx264 @ 0x55c269e4cc60] ref B L0: 82.4% 15.4%  2.2%
[libx264 @ 0x55c269e4cc60] ref B L1: 87.3% 12.7%
[libx264 @ 0x55c269e4cc60] PSNR Mean Y:47.296 U:51.917 V:53.644 Avg:48.466 Global:48.433 kb/s:162.80
